<svg version="1.1" id="Layer_1" xmlns="http://www.w3.org/2000/svg" xmlns:xlink="http://www.w3.org/1999/xlink" x="0px" y="0px"
	 width="100%" viewBox="0 0 281 101" enable-background="new 0 0 281 101" xml:space="preserve">
<path fill="#000001" opacity="1.000000" stroke="none" 
	d="
M194.000000,102.000000 
	C129.333359,102.000000 65.166702,102.000000 1.000043,102.000000 
	C1.000029,68.333359 1.000029,34.666725 1.000014,1.000066 
	C94.666603,1.000044 188.333206,1.000044 281.999878,1.000022 
	C281.999908,34.666599 281.999908,68.333199 281.999939,101.999901 
	C252.833328,102.000000 223.666672,102.000000 194.000000,102.000000 
M104.671890,77.571068 
	C103.381973,74.914177 102.092064,72.257286 100.802155,69.600403 
	C100.238319,69.683456 99.674492,69.766510 99.110657,69.849564 
	C97.688316,73.622284 96.265976,77.395004 94.843636,81.167725 
	C95.162987,81.800575 95.482346,82.433426 95.801697,83.066277 
	C99.220222,76.013741 102.526543,82.006042 106.607994,81.592064 
	C108.232018,80.581902 109.856049,79.571732 111.537758,78.525688 
	C112.695251,79.285408 113.982338,80.130188 115.033119,80.819870 
	C116.152512,77.585335 117.151489,74.698730 118.770744,72.210213 
	C119.936516,75.194855 121.102287,78.179497 122.742226,82.378090 
	C123.957367,77.559204 124.841446,74.053200 125.831474,70.127045 
	C123.647011,70.127045 120.897774,70.127045 117.210991,70.094955 
	C108.051643,69.940186 108.051643,69.940186 104.671890,77.571068 
M178.839142,45.996349 
	C182.177490,45.544353 185.459091,43.956535 188.688599,46.977962 
	C189.842667,48.057678 192.289001,47.756138 194.145508,48.085052 
	C193.448318,46.497856 192.802139,44.885128 192.027237,43.336830 
	C191.742371,42.767647 191.207718,42.281944 190.694260,41.875282 
	C186.636505,38.661564 177.979584,40.734341 176.655502,45.596478 
	C171.958694,46.539925 172.543625,50.206932 172.805191,53.466145 
	C173.247803,58.981178 177.739044,62.811291 183.666260,63.035305 
	C189.790710,63.266773 192.775146,61.044876 193.932663,54.394218 
	C191.719376,55.290855 189.964783,55.788006 188.427673,56.665932 
	C184.409836,58.960743 180.711304,58.525505 178.732468,54.408241 
	C177.604309,52.060963 178.210129,48.880299 178.839142,45.996349 
M128.251587,45.177086 
	C124.889862,47.921486 125.452347,50.629353 129.896255,52.560158 
	C132.559204,53.717171 135.310242,54.671417 138.021698,55.716797 
	C137.874741,56.358925 137.727768,57.001053 137.580811,57.643181 
	C135.662415,57.643181 133.702805,57.889164 131.836777,57.576569 
	C129.820953,57.238876 127.892586,56.379158 125.228134,55.522839 
	C127.289764,62.555004 133.745132,65.401566 139.441055,62.182236 
	C141.604324,60.959557 143.591125,57.831169 143.917114,55.343220 
	C144.352402,52.021202 141.652374,50.064255 137.611588,49.645596 
	C137.054871,49.056999 136.498169,48.468403 135.017471,46.902908 
	C137.736023,47.410488 139.265717,48.153065 140.447052,47.783146 
	C141.543182,47.439899 143.228973,45.526382 143.004059,44.960670 
	C141.098953,40.168633 136.331421,40.801846 132.472137,40.262436 
	C129.508835,39.848248 128.820572,42.401695 128.251587,45.177086 
M254.940262,34.676205 
	C252.099304,33.254948 249.838013,33.600426 249.819839,37.219612 
	C249.786560,43.846378 250.130371,50.475037 250.482452,57.779007 
	C252.437210,62.452450 255.480850,64.345627 259.649506,62.727772 
	C261.120911,62.156715 261.942108,59.910187 262.912079,58.624847 
	C259.846069,57.504284 256.834015,57.264126 256.383972,56.063557 
	C255.382370,53.391743 255.285873,50.195751 255.621170,47.306316 
	C255.741196,46.272053 258.239075,45.596867 259.515839,44.586243 
	C260.462341,43.837021 261.189423,42.810585 261.233704,42.762115 
	C258.938690,39.881626 257.112518,37.589615 254.940262,34.676205 
M72.882469,70.578522 
	C81.891777,64.196548 86.362831,54.345051 84.309151,45.401047 
	C81.775543,34.366859 74.759193,27.887228 63.155384,26.007252 
	C52.839214,24.335888 44.811184,28.192495 39.382534,36.875027 
	C34.080391,45.355228 34.417141,54.421318 39.466610,62.754528 
	C46.317879,74.061272 59.637901,77.105927 72.882469,70.578522 
M117.126076,44.272266 
	C116.016090,41.865326 115.140495,39.305691 113.708946,37.108242 
	C112.838577,35.772198 111.088593,34.166328 109.773026,34.200356 
	C108.458786,34.234356 106.672913,35.907570 105.994507,37.300777 
	C102.580826,44.311211 99.432816,51.452263 96.269630,58.582108 
	C95.777115,59.692238 95.687363,60.981060 95.411362,62.187248 
	C95.731003,62.559711 96.050652,62.932171 96.370300,63.304634 
	C97.876701,62.534946 100.305542,62.099190 100.726440,60.936535 
	C102.363503,56.414421 105.523407,55.803917 109.711510,55.884338 
	C113.740059,55.961689 117.237846,55.997128 118.873665,60.692890 
	C119.232956,61.724281 121.439766,62.112072 122.795784,62.796246 
	C123.102524,61.369530 124.046814,59.694191 123.604378,58.559624 
	C121.797813,53.926987 119.567360,49.459652 117.126076,44.272266 
M221.977646,61.697887 
	C223.747025,61.602409 225.516403,61.506931 227.473831,61.401306 
	C227.635742,60.608604 227.923828,59.820396 227.936676,59.027729 
	C227.993378,55.529263 228.136536,52.019764 227.931381,48.532913 
	C227.717361,44.895557 226.654266,40.995247 222.553345,40.617752 
	C219.038879,40.294247 215.077820,41.041889 211.852798,42.503834 
	C209.075729,43.762726 208.183258,46.743538 211.599991,49.017166 
	C206.730392,55.427074 206.543777,59.826679 211.668228,61.945343 
	C214.385239,63.068668 218.000946,62.018269 221.977646,61.697887 
M164.679581,41.512730 
	C158.380539,38.884502 153.218552,39.630554 149.610870,43.690578 
	C146.376617,47.330357 145.648911,53.100079 148.005447,57.142136 
	C150.615005,61.618195 154.553146,63.823273 159.690933,62.916245 
	C164.024429,62.151207 167.855545,60.531578 169.294998,55.541641 
	C170.885666,50.027527 170.338333,45.382996 164.679581,41.512730 
M243.324188,40.765579 
	C239.696747,41.166832 236.069305,41.568085 231.861633,42.033516 
	C231.861633,46.096680 231.581512,50.420422 231.961853,54.685261 
	C232.208099,57.446316 229.912094,62.351791 234.495209,62.424126 
	C238.825684,62.492470 237.293320,57.600533 237.468567,54.726231 
	C237.766357,49.842148 237.849380,45.166397 244.608170,44.984226 
	C245.380875,44.963398 246.107315,43.225620 246.855209,42.283936 
	C245.892807,41.757706 244.930405,41.231480 243.324188,40.765579 
M198.957428,47.375183 
	C198.722687,51.149876 198.225998,54.936218 198.393127,58.693031 
	C198.452850,60.035286 200.118774,61.306095 201.051559,62.609509 
	C202.029449,61.329803 203.717133,60.119808 203.850967,58.757214 
	C204.238556,54.810970 204.292542,50.774532 203.901123,46.830692 
	C203.665421,44.455696 202.138565,40.140347 201.562347,40.201252 
	C197.638840,40.615986 199.471268,44.143787 198.957428,47.375183 
z"/>
<path fill="#0B177C" opacity="1.000000" stroke="none" 
	d="
M72.566650,70.786583 
	C59.637901,77.105927 46.317879,74.061272 39.466610,62.754528 
	C34.417141,54.421318 34.080391,45.355228 39.382534,36.875027 
	C44.811184,28.192495 52.839214,24.335888 63.155384,26.007252 
	C74.759193,27.887228 81.775543,34.366859 84.309151,45.401047 
	C86.362831,54.345051 81.891777,64.196548 72.566650,70.786583 
M53.341763,66.790710 
	C55.802639,67.276825 58.263512,67.762939 60.724388,68.249054 
	C60.891079,67.640533 61.057766,67.032013 61.224457,66.423492 
	C60.186337,65.988686 59.148216,65.553871 57.436947,65.071617 
	C55.963642,65.427223 54.490341,65.782822 53.341763,66.790710 
M75.816414,45.381481 
	C69.606583,37.854065 61.980446,37.754845 55.383358,44.940056 
	C54.108505,46.328556 52.337162,47.446411 50.580448,48.164894 
	C47.779320,49.310532 44.798290,50.016300 41.886768,50.910091 
	C45.723892,60.344547 57.066795,62.756218 63.514420,55.411388 
	C66.393166,52.132057 69.318420,49.660469 73.938667,49.778843 
	C76.700127,49.849590 77.523392,48.441914 75.816414,45.381481 
M71.625557,55.910957 
	C68.497124,58.528748 66.642570,61.442394 69.994949,66.852257 
	C73.053856,63.195179 75.652550,60.088306 78.251251,56.981434 
	C77.925362,56.472847 77.599480,55.964256 77.273590,55.455669 
	C75.597435,55.455669 73.921280,55.455669 71.625557,55.910957 
M43.149708,43.434383 
	C45.689438,42.575756 48.839802,42.344360 50.572872,40.657150 
	C51.923847,39.341927 51.512123,36.216091 52.083229,32.648788 
	C46.321609,35.382423 43.509274,38.244587 43.149708,43.434383 
M64.643639,33.185669 
	C64.528290,33.281197 64.412949,33.376724 64.297607,33.472256 
	C64.398949,33.575748 64.521774,33.781544 64.598007,33.765526 
	C64.986771,33.683865 65.363503,33.544868 65.744438,33.425938 
	C65.465927,33.332401 65.187424,33.238865 64.643639,33.185669 
z"/>
<path fill="#0B1879" opacity="1.000000" stroke="none" 
	d="
M117.309555,44.601849 
	C119.567360,49.459652 121.797813,53.926987 123.604378,58.559624 
	C124.046814,59.694191 123.102524,61.369530 122.795776,62.796246 
	C121.439766,62.112072 119.232956,61.724281 118.873665,60.692890 
	C117.237846,55.997128 113.740059,55.961689 109.711510,55.884338 
	C105.523407,55.803917 102.363503,56.414421 100.726440,60.936535 
	C100.305542,62.099190 97.876701,62.534946 96.370300,63.304634 
	C96.050652,62.932171 95.731003,62.559711 95.411362,62.187248 
	C95.687363,60.981060 95.777115,59.692238 96.269630,58.582108 
	C99.432816,51.452263 102.580826,44.311211 105.994507,37.300777 
	C106.672913,35.907570 108.458786,34.234356 109.773026,34.200356 
	C111.088593,34.166328 112.838577,35.772198 113.708946,37.108242 
	C115.140495,39.305691 116.016090,41.865326 117.309555,44.601849 
M111.245880,50.807827 
	C115.717773,47.112129 110.982094,45.146206 110.093529,41.111843 
	C108.671791,44.016048 107.858101,45.603161 107.110199,47.220695 
	C105.246674,51.251015 106.999146,51.932312 111.245880,50.807827 
z"/>
<path fill="#0B1879" opacity="1.000000" stroke="none" 
	d="
M221.594299,61.823524 
	C218.000946,62.018269 214.385239,63.068668 211.668228,61.945343 
	C206.543777,59.826679 206.730392,55.427074 211.599991,49.017166 
	C208.183258,46.743538 209.075729,43.762726 211.852798,42.503834 
	C215.077820,41.041889 219.038879,40.294247 222.553345,40.617752 
	C226.654266,40.995247 227.717361,44.895557 227.931381,48.532913 
	C228.136536,52.019764 227.993378,55.529263 227.936676,59.027729 
	C227.923828,59.820396 227.635742,60.608604 227.473831,61.401306 
	C225.516403,61.506931 223.747025,61.602409 221.594299,61.823524 
M221.994553,53.713512 
	C221.066284,53.469891 220.038757,52.846588 219.229507,53.058167 
	C217.278046,53.568386 215.428680,54.469036 213.538147,55.212234 
	C214.044067,56.119171 214.601181,57.825607 215.047165,57.797043 
	C217.174850,57.660748 219.309708,57.171436 221.352585,56.525047 
	C221.825653,56.375359 221.947876,55.116833 221.994553,53.713512 
z"/>
<path fill="#0B187B" opacity="1.000000" stroke="none" 
	d="
M165.031677,41.688728 
	C170.338333,45.382996 170.885666,50.027527 169.294998,55.541641 
	C167.855545,60.531578 164.024429,62.151207 159.690933,62.916245 
	C154.553146,63.823273 150.615005,61.618195 148.005447,57.142136 
	C145.648911,53.100079 146.376617,47.330357 149.610870,43.690578 
	C153.218552,39.630554 158.380539,38.884502 165.031677,41.688728 
M160.843185,45.269623 
	C160.022781,45.179565 159.196426,44.975803 158.382980,45.018463 
	C154.070816,45.244614 151.619781,48.283657 152.106339,52.722183 
	C152.555222,56.816982 155.190186,58.968189 159.455582,57.846684 
	C161.387421,57.338741 163.658203,55.538673 164.423599,53.747284 
	C165.754776,50.631672 164.716370,47.556213 160.843185,45.269623 
z"/>
<path fill="#0C1876" opacity="1.000000" stroke="none" 
	d="
M255.286377,35.297607 
	C257.112518,37.589615 258.938690,39.881626 261.233704,42.762115 
	C261.189423,42.810585 260.462341,43.837021 259.515839,44.586243 
	C258.239075,45.596867 255.741196,46.272053 255.621170,47.306316 
	C255.285873,50.195751 255.382370,53.391743 256.383972,56.063557 
	C256.834015,57.264126 259.846069,57.504284 262.912079,58.624847 
	C261.942108,59.910187 261.120911,62.156715 259.649506,62.727772 
	C255.480850,64.345627 252.437210,62.452450 250.519806,57.038956 
	C250.706650,50.830452 250.825867,45.360939 251.018524,39.894012 
	C251.113876,37.188171 251.666611,34.787155 255.286377,35.297607 
z"/>
<path fill="#0D1978" opacity="1.000000" stroke="none" 
	d="
M138.131287,49.911736 
	C141.652374,50.064255 144.352402,52.021202 143.917114,55.343220 
	C143.591125,57.831169 141.604324,60.959557 139.441055,62.182236 
	C133.745132,65.401566 127.289764,62.555004 125.228134,55.522839 
	C127.892586,56.379158 129.820953,57.238876 131.836777,57.576569 
	C133.702805,57.889164 135.662415,57.643181 137.580811,57.643181 
	C137.727768,57.001053 137.874741,56.358925 138.021698,55.716797 
	C135.310242,54.671417 132.559204,53.717171 129.896255,52.560158 
	C125.452347,50.629353 124.889862,47.921486 128.851013,45.305393 
	C131.892700,47.801331 133.614670,51.565311 138.131287,49.911736 
z"/>
<path fill="#08157A" opacity="1.000000" stroke="none" 
	d="
M243.646088,40.735416 
	C244.930405,41.231480 245.892807,41.757706 246.855209,42.283936 
	C246.107315,43.225620 245.380875,44.963398 244.608170,44.984226 
	C237.849380,45.166397 237.766357,49.842148 237.468567,54.726231 
	C237.293320,57.600533 238.825684,62.492470 234.495209,62.424126 
	C229.912094,62.351791 232.208099,57.446316 231.961853,54.685261 
	C231.581512,50.420422 231.861633,46.096680 231.861633,42.033516 
	C236.069305,41.568085 239.696747,41.166832 243.646088,40.735416 
z"/>
<path fill="#0B187A" opacity="1.000000" stroke="none" 
	d="
M178.035156,46.074894 
	C178.210129,48.880299 177.604309,52.060963 178.732468,54.408241 
	C180.711304,58.525505 184.409836,58.960743 188.427673,56.665932 
	C189.964783,55.788006 191.719376,55.290855 193.932663,54.394218 
	C192.775146,61.044876 189.790710,63.266773 183.666260,63.035305 
	C177.739044,62.811291 173.247803,58.981178 172.805191,53.466145 
	C172.543625,50.206932 171.958694,46.539925 177.073853,45.503563 
	C177.674927,45.630634 177.855911,45.852051 178.035156,46.074894 
z"/>
<path fill="#0A1779" opacity="1.000000" stroke="none" 
	d="
M198.967041,46.930511 
	C199.471268,44.143787 197.638840,40.615986 201.562347,40.201252 
	C202.138565,40.140347 203.665421,44.455696 203.901123,46.830692 
	C204.292542,50.774532 204.238556,54.810970 203.850967,58.757214 
	C203.717133,60.119808 202.029449,61.329803 201.051559,62.609512 
	C200.118774,61.306095 198.452850,60.035286 198.393127,58.693031 
	C198.225998,54.936218 198.722687,51.149876 198.967041,46.930511 
z"/>
<path fill="#11166C" opacity="1.000000" stroke="none" 
	d="
M118.150467,71.812126 
	C117.151489,74.698730 116.152512,77.585335 115.033119,80.819870 
	C113.982338,80.130188 112.695251,79.285408 111.537758,78.525688 
	C109.856049,79.571732 108.232018,80.581902 106.127655,81.335114 
	C105.406570,80.139229 105.165840,79.200310 104.925102,78.261383 
	C108.051643,69.940186 108.051643,69.940186 117.675858,70.391678 
	C118.143967,71.062973 118.147217,71.437553 118.150467,71.812126 
z"/>
<path fill="#0E1873" opacity="1.000000" stroke="none" 
	d="
M137.871429,49.778664 
	C133.614670,51.565311 131.892700,47.801331 129.206726,45.205154 
	C128.820572,42.401695 129.508835,39.848248 132.472137,40.262436 
	C136.331421,40.801846 141.098953,40.168633 143.004059,44.960670 
	C143.228973,45.526382 141.543182,47.439899 140.447052,47.783146 
	C139.265717,48.153065 137.736023,47.410488 135.017471,46.902908 
	C136.498169,48.468403 137.054871,49.056999 137.871429,49.778664 
z"/>
<path fill="#0C177B" opacity="1.000000" stroke="none" 
	d="
M178.437149,46.035622 
	C177.855911,45.852051 177.674927,45.630634 177.354462,45.246548 
	C177.979584,40.734341 186.636505,38.661564 190.694260,41.875282 
	C191.207718,42.281944 191.742371,42.767647 192.027237,43.336830 
	C192.802139,44.885128 193.448318,46.497856 194.145508,48.085052 
	C192.289001,47.756138 189.842667,48.057678 188.688599,46.977962 
	C185.459091,43.956535 182.177490,45.544353 178.437149,46.035622 
z"/>
<path fill="#0D1376" opacity="1.000000" stroke="none" 
	d="
M104.798492,77.916229 
	C105.165840,79.200310 105.406570,80.139229 105.767563,81.343140 
	C102.526543,82.006042 99.220222,76.013741 95.801697,83.066277 
	C95.482346,82.433426 95.162987,81.800575 94.843636,81.167725 
	C96.265976,77.395004 97.688316,73.622284 99.110657,69.849564 
	C99.674492,69.766510 100.238319,69.683456 100.802155,69.600403 
	C102.092064,72.257286 103.381973,74.914177 104.798492,77.916229 
z"/>
<path fill="#0B1176" opacity="1.000000" stroke="none" 
	d="
M118.460602,72.011169 
	C118.147217,71.437553 118.143967,71.062973 118.144623,70.407722 
	C120.897774,70.127045 123.647011,70.127045 125.831474,70.127045 
	C124.841446,74.053200 123.957367,77.559204 122.742226,82.378090 
	C121.102287,78.179497 119.936516,75.194855 118.460602,72.011169 
z"/>
<path fill="#2B306B" opacity="1.000000" stroke="none" 
	d="
M255.113312,34.986908 
	C251.666611,34.787155 251.113876,37.188171 251.018524,39.894012 
	C250.825867,45.360939 250.706650,50.830452 250.437042,56.700905 
	C250.130371,50.475037 249.786560,43.846378 249.819839,37.219612 
	C249.838013,33.600426 252.099304,33.254948 255.113312,34.986908 
z"/>
<path fill="#040307" opacity="1.000000" stroke="none" 
	d="
M75.995438,45.661392 
	C77.523392,48.441914 76.700127,49.849590 73.938667,49.778843 
	C69.318420,49.660469 66.393166,52.132057 63.514420,55.411388 
	C57.066795,62.756218 45.723892,60.344547 41.886768,50.910091 
	C44.798290,50.016300 47.779320,49.310532 50.580448,48.164894 
	C52.337162,47.446411 54.108505,46.328556 55.383358,44.940056 
	C61.980446,37.754845 69.606583,37.854065 75.995438,45.661392 
z"/>
<path fill="#05040A" opacity="1.000000" stroke="none" 
	d="
M71.935341,55.683311 
	C73.921280,55.455669 75.597435,55.455669 77.273590,55.455669 
	C77.599480,55.964256 77.925362,56.472847 78.251251,56.981434 
	C75.652550,60.088306 73.053856,63.195179 69.994949,66.852257 
	C66.642570,61.442394 68.497124,58.528748 71.935341,55.683311 
z"/>
<path fill="#07060E" opacity="1.000000" stroke="none" 
	d="
M42.996296,43.175629 
	C43.509274,38.244587 46.321609,35.382423 52.083229,32.648788 
	C51.512123,36.216091 51.923847,39.341927 50.572872,40.657150 
	C48.839802,42.344360 45.689438,42.575756 42.996296,43.175629 
z"/>
<path fill="#050409" opacity="1.000000" stroke="none" 
	d="
M58.110096,65.119057 
	C59.148216,65.553871 60.186337,65.988686 61.224457,66.423492 
	C61.057766,67.032013 60.891079,67.640533 60.724388,68.249054 
	C58.263512,67.762939 55.802639,67.276825 53.556503,66.425163 
	C55.217529,65.746094 56.663811,65.432579 58.110096,65.119057 
z"/>
<path fill="#39305F" opacity="1.000000" stroke="none" 
	d="
M64.776276,33.165497 
	C65.187424,33.238865 65.465927,33.332401 65.744438,33.425938 
	C65.363503,33.544868 64.986771,33.683865 64.598007,33.765526 
	C64.521774,33.781544 64.398949,33.575748 64.297607,33.472252 
	C64.412949,33.376724 64.528290,33.281197 64.776276,33.165497 
z"/>
<path fill="#3A3057" opacity="1.000000" stroke="none" 
	d="
M57.773521,65.095337 
	C56.663811,65.432579 55.217529,65.746094 53.394142,66.099022 
	C54.490341,65.782822 55.963642,65.427223 57.773521,65.095337 
z"/>
<path fill="#050713" opacity="1.000000" stroke="none" 
	d="
M110.902420,50.854874 
	C106.999146,51.932312 105.246674,51.251015 107.110199,47.220695 
	C107.858101,45.603161 108.671791,44.016048 110.093529,41.111843 
	C110.982094,45.146206 115.717773,47.112129 110.902420,50.854874 
z"/>
<path fill="#05060D" opacity="1.000000" stroke="none" 
	d="
M222.113037,54.041023 
	C221.947876,55.116833 221.825653,56.375359 221.352585,56.525047 
	C219.309708,57.171436 217.174850,57.660748 215.047165,57.797043 
	C214.601181,57.825607 214.044067,56.119171 213.538147,55.212234 
	C215.428680,54.469036 217.278046,53.568386 219.229507,53.058167 
	C220.038757,52.846588 221.066284,53.469891 222.113037,54.041023 
z"/>
<path fill="#030307" opacity="1.000000" stroke="none" 
	d="
M161.201874,45.441544 
	C164.716370,47.556213 165.754776,50.631672 164.423599,53.747284 
	C163.658203,55.538673 161.387421,57.338741 159.455582,57.846684 
	C155.190186,58.968189 152.555222,56.816982 152.106339,52.722183 
	C151.619781,48.283657 154.070816,45.244614 158.382980,45.018463 
	C159.196426,44.975803 160.022781,45.179565 161.201874,45.441544 
z"/>
</svg>