<svg width="29" height="29" viewBox="0 0 29 29" fill="none" xmlns="http://www.w3.org/2000/svg">
<circle cx="14.5" cy="14.5" r="14" fill="#38519F" stroke="#38519F"/>
<g clip-path="url(#clip0_275_300)">
<path d="M10.7439 18.2012H20.5213C21.8483 18.1805 22.5125 16.2714 21.0347 15.8413C19.626 15.4305 18.1883 15.6042 17.0993 14.4298C15.2521 12.4352 16.5334 9.1255 19.2829 9.02212C20.5158 8.97525 21.7777 9.05796 23.0134 9.02212C24.2491 9.10896 24.3598 10.7149 23.1476 10.9051C21.905 10.9657 20.5822 10.8224 19.3493 10.9051C17.8521 11.0029 17.5836 12.992 19.0573 13.4621C20.0204 13.7695 21.1094 13.7461 22.0517 14.1789C24.8828 15.4774 24.0028 19.8457 20.8908 20.0014H9.39749C8.66965 19.9394 8.2061 19.2488 8.48423 18.5568L10.5543 14.9384C11.1784 14.0727 12.616 14.8226 12.0363 15.9309C11.664 16.6422 11.177 17.33 10.8089 18.0399C10.7951 18.0661 10.7286 18.1847 10.7452 18.2012" fill="white"/>
<path d="M11.3348 9.01098C11.9492 8.94895 12.5635 9.15434 12.9316 9.66023L17.062 16.6903C17.3748 17.4995 16.5016 18.1363 15.7544 17.7931C15.45 17.6525 15.2687 17.3685 15.0999 17.0969C13.9223 15.1947 12.8693 13.2111 11.7042 11.3006C11.66 11.2248 11.5479 11.1641 11.4718 11.2303L6.66884 19.5216C5.96452 20.4162 4.6901 19.5947 5.07063 18.5788L10.0756 9.85735C10.3274 9.42176 10.8242 9.06337 11.3334 9.01098" fill="white"/>
</g>
<defs>
<clipPath id="clip0_275_300">
<rect width="19" height="11" fill="white" transform="translate(5 9)"/>
</clipPath>
</defs>
</svg>
